<mxfile host="app.diagrams.net" modified="2023-12-22T23:27:55.315Z" agent="Mozilla/5.0 (Windows NT 10.0; Win64; x64) AppleWebKit/537.36 (KHTML, like Gecko) Chrome/120.0.0.0 Safari/537.36" etag="d2BFRmWciIzfByaH9L52" version="22.1.11" type="github">
  <diagram id="C5RBs43oDa-KdzZeNtuy" name="Page-1">
    <mxGraphModel dx="928" dy="722" grid="1" gridSize="10" guides="1" tooltips="1" connect="1" arrows="1" fold="1" page="1" pageScale="1" pageWidth="827" pageHeight="1169" math="0" shadow="0">
      <root>
        <mxCell id="WIyWlLk6GJQsqaUBKTNV-0" />
        <mxCell id="WIyWlLk6GJQsqaUBKTNV-1" parent="WIyWlLk6GJQsqaUBKTNV-0" />
        <mxCell id="WIyWlLk6GJQsqaUBKTNV-3" value="Is [firstTime] false?" style="rounded=0;whiteSpace=wrap;html=1;fontSize=12;glass=0;strokeWidth=1;shadow=0;" parent="WIyWlLk6GJQsqaUBKTNV-1" vertex="1">
          <mxGeometry x="827" y="40" width="120" height="40" as="geometry" />
        </mxCell>
        <mxCell id="ROSyfb7WgI8DFG1DeHRe-3" value="Attempt to fetch [firstTime] localstorage" style="ellipse;whiteSpace=wrap;html=1;" vertex="1" parent="WIyWlLk6GJQsqaUBKTNV-1">
          <mxGeometry x="300" y="30" width="120" height="80" as="geometry" />
        </mxCell>
        <mxCell id="ROSyfb7WgI8DFG1DeHRe-12" style="edgeStyle=orthogonalEdgeStyle;rounded=0;orthogonalLoop=1;jettySize=auto;html=1;exitX=1;exitY=0.5;exitDx=0;exitDy=0;exitPerimeter=0;entryX=0;entryY=0.5;entryDx=0;entryDy=0;" edge="1" parent="WIyWlLk6GJQsqaUBKTNV-1" source="ROSyfb7WgI8DFG1DeHRe-5" target="ROSyfb7WgI8DFG1DeHRe-7">
          <mxGeometry relative="1" as="geometry" />
        </mxCell>
        <mxCell id="ROSyfb7WgI8DFG1DeHRe-13" value="false" style="edgeLabel;html=1;align=center;verticalAlign=middle;resizable=0;points=[];" vertex="1" connectable="0" parent="ROSyfb7WgI8DFG1DeHRe-12">
          <mxGeometry x="-0.3" y="2" relative="1" as="geometry">
            <mxPoint x="12" y="2" as="offset" />
          </mxGeometry>
        </mxCell>
        <mxCell id="ROSyfb7WgI8DFG1DeHRe-24" style="edgeStyle=orthogonalEdgeStyle;rounded=0;orthogonalLoop=1;jettySize=auto;html=1;exitX=0.5;exitY=1;exitDx=0;exitDy=0;exitPerimeter=0;entryX=0.5;entryY=0;entryDx=0;entryDy=0;" edge="1" parent="WIyWlLk6GJQsqaUBKTNV-1" source="ROSyfb7WgI8DFG1DeHRe-5" target="ROSyfb7WgI8DFG1DeHRe-23">
          <mxGeometry relative="1" as="geometry" />
        </mxCell>
        <mxCell id="ROSyfb7WgI8DFG1DeHRe-26" value="true" style="edgeLabel;html=1;align=center;verticalAlign=middle;resizable=0;points=[];" vertex="1" connectable="0" parent="ROSyfb7WgI8DFG1DeHRe-24">
          <mxGeometry x="-0.225" y="-8" relative="1" as="geometry">
            <mxPoint x="8" as="offset" />
          </mxGeometry>
        </mxCell>
        <mxCell id="ROSyfb7WgI8DFG1DeHRe-5" value="Existsp?" style="strokeWidth=2;html=1;shape=mxgraph.flowchart.decision;whiteSpace=wrap;" vertex="1" parent="WIyWlLk6GJQsqaUBKTNV-1">
          <mxGeometry x="310" y="160" width="100" height="100" as="geometry" />
        </mxCell>
        <mxCell id="ROSyfb7WgI8DFG1DeHRe-7" value="Set Default Variables" style="rounded=0;whiteSpace=wrap;html=1;" vertex="1" parent="WIyWlLk6GJQsqaUBKTNV-1">
          <mxGeometry x="490" y="180" width="120" height="60" as="geometry" />
        </mxCell>
        <mxCell id="ROSyfb7WgI8DFG1DeHRe-8" value="" style="strokeWidth=2;html=1;shape=mxgraph.flowchart.annotation_2;align=left;labelPosition=right;pointerEvents=1;" vertex="1" parent="WIyWlLk6GJQsqaUBKTNV-1">
          <mxGeometry x="610" y="160" width="50" height="100" as="geometry" />
        </mxCell>
        <mxCell id="ROSyfb7WgI8DFG1DeHRe-9" value="timePass: false&lt;br&gt;bgChange: false&lt;br&gt;console.log(&quot;no data);&lt;br&gt;alert(&quot;no data, setting timePass to false)" style="text;html=1;align=center;verticalAlign=middle;resizable=0;points=[];autosize=1;strokeColor=none;fillColor=none;" vertex="1" parent="WIyWlLk6GJQsqaUBKTNV-1">
          <mxGeometry x="650" y="170" width="240" height="70" as="geometry" />
        </mxCell>
        <mxCell id="ROSyfb7WgI8DFG1DeHRe-11" value="[timePass]p?" style="strokeWidth=2;html=1;shape=mxgraph.flowchart.decision;whiteSpace=wrap;" vertex="1" parent="WIyWlLk6GJQsqaUBKTNV-1">
          <mxGeometry x="310" y="400" width="100" height="100" as="geometry" />
        </mxCell>
        <mxCell id="ROSyfb7WgI8DFG1DeHRe-20" value="[bgChange]p?" style="strokeWidth=2;html=1;shape=mxgraph.flowchart.decision;whiteSpace=wrap;" vertex="1" parent="WIyWlLk6GJQsqaUBKTNV-1">
          <mxGeometry x="180" y="530" width="100" height="100" as="geometry" />
        </mxCell>
        <mxCell id="ROSyfb7WgI8DFG1DeHRe-21" style="edgeStyle=orthogonalEdgeStyle;rounded=0;orthogonalLoop=1;jettySize=auto;html=1;exitX=0.5;exitY=1;exitDx=0;exitDy=0;entryX=0.5;entryY=0;entryDx=0;entryDy=0;entryPerimeter=0;" edge="1" parent="WIyWlLk6GJQsqaUBKTNV-1" source="ROSyfb7WgI8DFG1DeHRe-3" target="ROSyfb7WgI8DFG1DeHRe-5">
          <mxGeometry relative="1" as="geometry" />
        </mxCell>
        <mxCell id="ROSyfb7WgI8DFG1DeHRe-22" value="[txtShadow]p?" style="strokeWidth=2;html=1;shape=mxgraph.flowchart.decision;whiteSpace=wrap;" vertex="1" parent="WIyWlLk6GJQsqaUBKTNV-1">
          <mxGeometry x="310" y="530" width="100" height="100" as="geometry" />
        </mxCell>
        <mxCell id="ROSyfb7WgI8DFG1DeHRe-23" value="Fetch variables localstorage" style="rounded=0;whiteSpace=wrap;html=1;" vertex="1" parent="WIyWlLk6GJQsqaUBKTNV-1">
          <mxGeometry x="300" y="300" width="120" height="60" as="geometry" />
        </mxCell>
        <mxCell id="ROSyfb7WgI8DFG1DeHRe-25" style="edgeStyle=orthogonalEdgeStyle;rounded=0;orthogonalLoop=1;jettySize=auto;html=1;exitX=0.5;exitY=1;exitDx=0;exitDy=0;entryX=0.5;entryY=0;entryDx=0;entryDy=0;entryPerimeter=0;" edge="1" parent="WIyWlLk6GJQsqaUBKTNV-1" source="ROSyfb7WgI8DFG1DeHRe-23" target="ROSyfb7WgI8DFG1DeHRe-11">
          <mxGeometry relative="1" as="geometry" />
        </mxCell>
      </root>
    </mxGraphModel>
  </diagram>
</mxfile>
